<mxfile host="app.diagrams.net" agent="Mozilla/5.0 (Windows NT 10.0; Win64; x64) AppleWebKit/537.36 (KHTML, like Gecko) Chrome/134.0.0.0 Safari/537.36 Edg/134.0.0.0" version="26.0.16">
  <diagram name="Page-1" id="xD34YyrGZc8fnPlcCCk5">
    <mxGraphModel dx="826" dy="460" grid="1" gridSize="10" guides="1" tooltips="1" connect="1" arrows="1" fold="1" page="1" pageScale="1" pageWidth="1169" pageHeight="827" math="0" shadow="0">
      <root>
        <mxCell id="0" />
        <mxCell id="1" parent="0" />
        <mxCell id="-UrwRbucvwjURPhLb9kA-1" value="" style="rounded=1;whiteSpace=wrap;html=1;arcSize=11;" vertex="1" parent="1">
          <mxGeometry x="120" y="200" width="200" height="200" as="geometry" />
        </mxCell>
        <mxCell id="-UrwRbucvwjURPhLb9kA-2" value="" style="rounded=0;whiteSpace=wrap;html=1;" vertex="1" parent="1">
          <mxGeometry x="140" y="220" width="40" height="150" as="geometry" />
        </mxCell>
        <mxCell id="-UrwRbucvwjURPhLb9kA-3" value="" style="rounded=0;whiteSpace=wrap;html=1;" vertex="1" parent="1">
          <mxGeometry x="180" y="220" width="40" height="150" as="geometry" />
        </mxCell>
        <mxCell id="-UrwRbucvwjURPhLb9kA-4" value="" style="rounded=0;whiteSpace=wrap;html=1;" vertex="1" parent="1">
          <mxGeometry x="220" y="220" width="40" height="150" as="geometry" />
        </mxCell>
        <mxCell id="-UrwRbucvwjURPhLb9kA-5" value="" style="rounded=0;whiteSpace=wrap;html=1;" vertex="1" parent="1">
          <mxGeometry x="260" y="220" width="40" height="150" as="geometry" />
        </mxCell>
      </root>
    </mxGraphModel>
  </diagram>
</mxfile>
